HIERARCHY
ROOT Hips
{
	OFFSET 0.000000 0.000000 0.000000
	CHANNELS 6 Xposition Yposition Zposition Zrotation Yrotation Xrotation
	JOINT LHipJoint
	{
		OFFSET 0.000000 0.000000 0.000000
		CHANNELS 3 Zrotation Yrotation Xrotation
		JOINT LeftUpLeg
		{
			OFFSET 1.363060 -1.794630 0.839290
			CHANNELS 3 Zrotation Yrotation Xrotation
			JOINT LeftLeg
			{
				OFFSET 2.448110 -6.726130 0.000000
				CHANNELS 3 Zrotation Yrotation Xrotation
				JOINT LeftFoot
				{
					OFFSET 2.562200 -7.039590 0.000000
					CHANNELS 3 Zrotation Yrotation Xrotation
					JOINT LeftToeBase
					{
						OFFSET 0.157640 -0.433110 2.322550
						CHANNELS 3 Zrotation Yrotation Xrotation
						End Site
						{
							OFFSET 0.000000 0.000000 0.000000
						}
					}
				}
			}
		}
	}
	JOINT RHipJoint
	{
		OFFSET 0.000000 0.000000 0.000000
		CHANNELS 3 Zrotation Yrotation Xrotation
		JOINT RightUpLeg
		{
			OFFSET -1.305520 -1.794630 0.839290
			CHANNELS 3 Zrotation Yrotation Xrotation
			JOINT RightLeg
			{
				OFFSET -2.542530 -6.985550 0.000000
				CHANNELS 3 Zrotation Yrotation Xrotation
				JOINT RightFoot
				{
					OFFSET -2.568260 -7.056230 0.000000
					CHANNELS 3 Zrotation Yrotation Xrotation
					JOINT RightToeBase
					{
						OFFSET -0.164730 -0.452590 2.363150
						CHANNELS 3 Zrotation Yrotation Xrotation
						End Site
						{
							OFFSET 0.000000 0.000000 0.000000
						}
					}
				}
			}
		}
	}
	JOINT LowerBack
	{
		OFFSET 0.000000 0.000000 0.000000
		CHANNELS 3 Zrotation Yrotation Xrotation
		JOINT Spine
		{
			OFFSET 0.028270 2.035590 -0.193380
			CHANNELS 3 Zrotation Yrotation Xrotation
			JOINT Spine1
			{
				OFFSET 0.056720 2.048850 -0.042750
				CHANNELS 3 Zrotation Yrotation Xrotation
				JOINT Neck
				{
					OFFSET 0.000000 0.000000 0.000000
					CHANNELS 3 Zrotation Yrotation Xrotation
					JOINT Neck1
					{
						OFFSET -0.054170 1.746240 0.172020
						CHANNELS 3 Zrotation Yrotation Xrotation
						JOINT Head
						{
							OFFSET 0.104070 1.761360 -0.123970
							CHANNELS 3 Zrotation Yrotation Xrotation
							End Site
							{
								OFFSET 0.000000 0.000000 0.000000
							}
						}
					}
				}
				JOINT LeftShoulder
				{
					OFFSET 0.000000 0.000000 0.000000
					CHANNELS 3 Zrotation Yrotation Xrotation
					JOINT LeftArm
					{
						OFFSET 3.362410 1.200890 -0.311210
						CHANNELS 3 Zrotation Yrotation Xrotation
						JOINT LeftForeArm
						{
							OFFSET 4.983000 -0.000000 -0.000000
							CHANNELS 3 Zrotation Yrotation Xrotation
							JOINT LeftHand
							{
								OFFSET 3.483560 -0.000000 -0.000000
								CHANNELS 3 Zrotation Yrotation Xrotation
								JOINT LeftFingerBase
								{
									OFFSET 0.000000 0.000000 0.000000
									CHANNELS 3 Zrotation Yrotation Xrotation
									JOINT LeftHandIndex1
									{
										OFFSET 0.715260 -0.000000 -0.000000
										CHANNELS 3 Zrotation Yrotation Xrotation
										End Site
										{
											OFFSET 0.000000 0.000000 0.000000
										}
									}
								}
								JOINT LThumb
								{
									OFFSET 0.000000 0.000000 0.000000
									CHANNELS 3 Zrotation Yrotation Xrotation
									End Site
									{
										OFFSET 0.000000 0.000000 0.000000
									}
								}
							}
						}
					}
				}
				JOINT RightShoulder
				{
					OFFSET 0.000000 0.000000 0.000000
					CHANNELS 3 Zrotation Yrotation Xrotation
					JOINT RightArm
					{
						OFFSET -3.136600 1.374050 -0.404650
						CHANNELS 3 Zrotation Yrotation Xrotation
						JOINT RightForeArm
						{
							OFFSET -5.241900 -0.000000 -0.000000
							CHANNELS 3 Zrotation Yrotation Xrotation
							JOINT RightHand
							{
								OFFSET -3.444170 -0.000000 -0.000000
								CHANNELS 3 Zrotation Yrotation Xrotation
								JOINT RightFingerBase
								{
									OFFSET 0.000000 0.000000 0.000000
									CHANNELS 3 Zrotation Yrotation Xrotation
									JOINT RightHandIndex1
									{
										OFFSET -0.622530 -0.000000 -0.000000
										CHANNELS 3 Zrotation Yrotation Xrotation
										End Site
										{
											OFFSET 0.000000 0.000000 0.000000
										}
									}
								}
								JOINT RThumb
								{
									OFFSET 0.000000 0.000000 0.000000
									CHANNELS 3 Zrotation Yrotation Xrotation
									End Site
									{
										OFFSET 0.000000 0.000000 0.000000
									}
								}
							}
						}
					}
				}
			}
		}
	}
}
MOTION
Frames: 11
Frame Time: 0.008333
0.412235 10.674687 -28.805023 15.428297 -2.696684 0.980493 1.120774 4.556655 1.470490 -6.042142 5.454077 50.018394 0.746077 -12.723442 -1.982503 4.468132 -25.533087 -17.219896 3.984143 -35.714870 56.618397 -4.790552 -6.179038 -16.352005 3.577317 10.090792 -35.778458 7.501124 -2.197159 -24.768648 11.535154 20.648457 -6.897872 -2.364532 10.665155 1.547632 -6.926177 -1.884687 -6.331720 1.254341 -10.179306 3.089402 2.711377 -6.766777 0.796735 5.086436 -9.468544 -12.233141 3.131776 5.080815 -12.185704 5.095775 -0.701909 5.623538 -0.873293 -2.223067 -0.261715 -5.488240 -39.701172 73.905495 11.273825 -17.201975 -7.658979 0.302556 0.091601 -67.623062 30.673866 -19.957998 -9.591884 -3.219473 0.000000 0.000000 -33.898052 4.545578 5.226982 -11.586768 -1.622100 1.033311 -11.638690 -47.054985 -57.539818 2.901719 -17.480394 -13.368564 -1.923080 -2.151265 38.617851 10.578516 13.421126 10.553577 0.983159 0.000000 0.000000 53.705570 16.551664 12.929260
0.386247 10.729776 -29.118793 15.380436 -2.580705 1.092291 1.069778 4.549180 1.477678 -5.954186 5.479644 51.100967 0.737368 -12.888398 -2.228942 4.523776 -25.506758 -17.671225 4.046583 -35.684555 56.260723 -4.910825 -6.212078 -16.385822 3.471024 10.204292 -35.943401 7.428299 -2.223373 -24.235088 11.535590 20.519249 -6.865284 -2.324080 10.697939 1.393231 -6.817247 -1.884053 -6.413031 1.272424 -10.138870 2.936587 2.744478 -6.754846 0.857312 4.918665 -9.457874 -12.295444 3.090509 5.160030 -12.229975 5.064193 -0.703999 5.631427 -0.829160 -2.233351 -0.266690 -5.651069 -39.504826 73.397476 11.349520 -17.400908 -7.737174 0.306566 0.093209 -67.550438 30.540525 -19.854645 -9.635893 -3.239262 0.000000 0.000000 -33.921642 4.621330 4.874740 -11.622727 -1.571645 1.031842 -11.883554 -47.117405 -57.877121 2.993150 -17.431038 -13.278399 -1.937411 -2.165902 38.828148 10.455072 13.259970 11.074385 0.980142 0.000000 0.000000 53.776096 16.641537 13.304950
0.361537 10.789367 -29.396954 15.338550 -2.460769 1.225078 1.041649 4.548463 1.489451 -5.854842 5.513818 52.181526 0.731086 -13.038347 -2.439978 4.579942 -25.485855 -18.134876 4.106880 -35.673519 55.866940 -5.033129 -6.244134 -16.421251 3.370266 10.310187 -36.099998 7.351201 -2.249555 -23.674953 11.537141 20.372900 -6.829832 -2.280434 10.735144 1.273147 -6.694307 -1.879447 -6.489738 1.294289 -10.091379 2.802366 2.786002 -6.733847 0.946968 4.752193 -9.445207 -12.361523 3.047195 5.234302 -12.267318 5.022839 -0.709293 5.643604 -0.779278 -2.236047 -0.271054 -5.845418 -39.328468 73.069633 11.454278 -17.620562 -7.823181 0.305241 0.084254 -67.494576 30.403183 -19.758108 -9.685763 -3.260054 0.000000 0.000000 -33.995628 4.644626 4.505647 -11.656837 -1.522983 1.029810 -12.143621 -47.187920 -58.222080 3.074180 -17.406290 -13.213852 -1.953471 -2.182919 39.014908 10.145407 13.010911 11.462192 0.974019 0.000000 0.000000 53.674324 16.623730 13.475388
0.327977 10.835805 -29.717274 15.287173 -2.358711 1.341620 1.002099 4.541530 1.492941 -5.774125 5.532682 53.222660 0.718358 -13.202082 -2.684017 4.632837 -25.482613 -18.613928 4.163764 -35.676979 55.435036 -5.179455 -6.283596 -16.470009 3.216032 10.381996 -36.305290 7.262023 -2.293872 -23.166224 11.523600 20.156952 -6.875266 -2.246436 10.744794 1.069392 -6.591668 -1.888081 -6.612624 1.301881 -10.059941 2.639148 2.808967 -6.720590 0.998719 4.555734 -9.453528 -12.462181 2.988502 5.284033 -12.332435 4.964708 -0.725246 5.633645 -0.753971 -2.259978 -0.280482 -6.160827 -39.199284 72.629280 11.530979 -17.872154 -7.918175 0.301540 0.071193 -67.486710 30.247959 -19.691130 -9.750333 -3.283529 0.000000 0.000000 -34.140900 4.571252 4.071209 -11.702391 -1.483497 1.024930 -12.453469 -47.278934 -58.593037 3.132968 -17.412889 -13.170575 -1.971757 -2.203235 39.173008 9.656846 12.669804 11.700148 0.963930 0.000000 0.000000 53.379547 16.489691 13.439397
0.302435 10.895833 -29.951544 15.281765 -2.210400 1.467937 0.979653 4.549766 1.504143 -5.679910 5.565172 54.254230 0.708346 -13.353621 -2.893764 4.684854 -25.479910 -19.131229 4.212454 -35.791718 54.807671 -5.351168 -6.329166 -16.538824 3.055229 10.438571 -36.519012 7.152509 -2.381675 -22.692764 11.494311 19.998686 -6.952538 -2.210005 10.760923 0.642631 -6.513209 -1.897479 -6.743099 1.302008 -10.031273 2.482094 2.832906 -6.709254 1.043526 4.351635 -9.467861 -12.580086 2.923904 5.317533 -12.408207 4.893155 -0.751093 5.606718 -0.750006 -2.304642 -0.294013 -6.558209 -39.105221 72.010712 11.573296 -18.170860 -8.025616 0.293791 0.046833 -67.653526 30.005421 -19.861561 -9.907564 -3.319840 0.000000 0.000000 -34.567581 4.108318 3.308919 -11.787565 -1.472230 1.009330 -12.923717 -47.404510 -59.034935 3.122038 -17.498940 -13.187709 -1.997468 -2.232439 39.257366 8.689638 12.113267 11.551754 0.943366 0.000000 0.000000 52.658669 16.094687 12.939453
0.278699 10.906418 -30.367142 15.263328 -2.077396 1.563973 0.938569 4.552807 1.516171 -5.594646 5.596891 55.206478 0.681370 -13.496872 -3.064308 4.732063 -25.455084 -19.563437 4.274141 -35.886917 54.200920 -5.500315 -6.364990 -16.617992 2.909147 10.495976 -36.719852 7.050658 -2.469733 -22.180826 11.466837 20.039759 -6.950253 -2.166407 10.801317 0.056239 -6.460318 -1.912163 -6.898170 1.289856 -10.021600 2.306545 2.844481 -6.715832 1.051902 4.124827 -9.501291 -12.711619 2.857527 5.341395 -12.488720 4.809521 -0.778457 5.582137 -0.745968 -2.343064 -0.305970 -6.927136 -39.006866 71.437210 11.646708 -18.430908 -8.125085 0.290944 0.035646 -67.645264 29.869818 -19.977709 -10.004426 -3.341173 0.000000 0.000000 -34.672409 4.027133 2.925301 -11.833401 -1.428560 1.004371 -13.240315 -47.466232 -59.401386 3.204403 -17.511337 -13.169645 -2.021120 -2.256746 39.388073 8.088660 11.720078 11.642808 0.928894 0.000000 0.000000 52.130753 15.792315 12.673399
0.289653 10.950129 -30.585382 15.254183 -1.930080 1.694992 0.947874 4.572470 1.547841 -5.464325 5.665112 56.167660 0.668155 -13.591654 -3.118293 4.771381 -25.424555 -19.956095 4.333686 -35.921753 53.744068 -5.634424 -6.394147 -16.697487 2.798526 10.563047 -36.889652 6.978002 -2.532112 -21.615389 11.448098 20.203970 -6.941294 -2.124869 10.831653 -0.466899 -6.373600 -1.914084 -7.033811 1.285428 -10.004395 2.154224 2.865789 -6.722341 1.088971 3.908421 -9.529225 -12.822886 2.793526 5.356246 -12.570591 4.721985 -0.810873 5.548331 -0.754710 -2.390128 -0.320667 -7.346520 -38.935116 70.777962 11.705194 -18.740044 -8.238761 0.282652 0.014927 -67.762894 29.672411 -20.220997 -10.155105 -3.374608 0.000000 0.000000 -35.033413 3.635174 2.310569 -11.919971 -1.417888 0.989878 -13.690390 -47.584309 -59.861629 3.203560 -17.635815 -13.205521 -2.051713 -2.285905 39.479542 7.138787 11.153481 11.446968 0.906441 0.000000 0.000000 51.348476 15.331043 12.278953
0.289084 10.980229 -30.827665 15.232794 -1.809596 1.790685 0.934461 4.575863 1.560914 -5.389682 5.689214 57.022625 0.634710 -13.733566 -3.307347 4.790466 -25.468103 -20.439970 4.374270 -35.996147 53.163982 -5.829126 -6.444927 -16.814865 2.569257 10.568280 -37.151192 6.889879 -2.618112 -21.110884 11.412752 20.298334 -7.032078 -2.094228 10.836906 -1.027927 -6.292127 -1.914095 -7.169504 1.283830 -9.979811 2.017683 2.896331 -6.723152 1.146963 3.713739 -9.542312 -12.899614 2.744409 5.396521 -12.609031 4.659038 -0.828788 5.547509 -0.727373 -2.407832 -0.327730 -7.577461 -38.799862 70.298706 11.810933 -18.980509 -8.337165 0.280512 0.009754 -67.681168 29.594257 -20.293741 -10.229461 -3.393361 0.000000 0.000000 -35.098965 3.585065 2.038147 -11.961089 -1.376238 0.986251 -13.980838 -47.641975 -60.226967 3.317006 -17.671772 -13.168834 -2.072181 -2.304006 39.677410 6.941021 10.910713 11.809190 0.898561 0.000000 0.000000 51.300171 15.281511 12.641766
0.271293 10.993150 -31.067570 15.190197 -1.703954 1.842652 0.899955 4.561842 1.563257 -5.350646 5.692550 57.862720 0.603207 -13.899336 -3.571753 4.773877 -25.658636 -21.027826 4.387801 -36.157139 52.289013 -6.082330 -6.513160 -16.949118 2.231130 10.514244 -37.516563 6.799534 -2.718410 -20.594376 11.374558 20.491997 -6.947263 -2.053756 10.877222 -1.254831 -6.133095 -1.883365 -7.223791 1.312176 -9.924877 1.943118 2.964459 -6.706768 1.265392 3.570623 -9.525341 -12.900441 2.731369 5.474553 -12.582767 4.637389 -0.822445 5.602097 -0.638960 -2.381634 -0.323225 -7.514107 -38.564934 70.141624 11.985777 -19.146444 -8.418962 0.284535 0.020929 -67.404594 29.634357 -20.223364 -10.268795 -3.395375 0.000000 0.000000 -34.831657 3.912275 2.157042 -11.941255 -1.307923 0.994505 -14.093390 -47.660507 -60.464096 3.590102 -17.577000 -12.991855 -2.078501 -2.310786 39.985882 7.456461 11.008811 12.717292 0.904887 0.000000 0.000000 51.985573 15.639941 13.743211
0.273511 11.009583 -31.224497 15.137882 -1.579034 1.902171 0.886522 4.546354 1.574903 -5.293129 5.714584 58.679497 0.578235 -14.023197 -3.718182 4.773114 -25.820198 -21.477949 4.415433 -36.240631 51.493771 -6.259274 -6.553411 -17.022078 2.017407 10.531665 -37.773037 6.743432 -2.786974 -20.038292 11.342556 20.566252 -6.876494 -2.027058 10.880711 -1.494058 -5.979465 -1.873800 -7.355154 1.324861 -9.900280 1.827616 3.008044 -6.703914 1.347647 3.396762 -9.537227 -12.949913 2.696976 5.509885 -12.616785 4.575698 -0.841592 5.593568 -0.623613 -2.411668 -0.332499 -7.793458 -38.451859 69.729828 12.083147 -19.424755 -8.532274 0.278762 0.010120 -67.440460 29.515631 -20.409130 -10.437859 -3.421327 0.000000 0.000000 -35.098667 3.571259 1.706640 -11.997492 -1.299720 0.983234 -14.495996 -47.843513 -60.887775 3.652867 -17.692709 -12.917444 -2.099799 -2.333596 40.160255 6.879245 10.674000 12.860937 0.890218 0.000000 0.000000 51.648319 15.413978 13.664762
0.288097 11.024385 -31.320370 15.081007 -1.434315 1.975963 0.901767 4.536263 1.592239 -5.229493 5.744023 59.361187 0.547747 -14.118291 -3.820017 4.798737 -25.899786 -21.798363 4.450124 -36.226849 50.808842 -6.428073 -6.585191 -17.068981 1.879081 10.607978 -37.935932 6.713217 -2.828805 -19.393345 11.333810 20.587650 -6.750648 -1.990126 10.929128 -1.724012 -5.799541 -1.843092 -7.428905 1.359113 -9.846496 1.767438 3.082527 -6.689086 1.496296 3.273105 -9.520441 -12.952520 2.678811 5.581127 -12.587859 4.549513 -0.836916 5.646648 -0.535625 -2.380212 -0.327595 -7.732769 -38.224606 69.611916 12.261580 -19.596926 -8.620686 0.283007 0.022128 -67.182800 29.564651 -20.250580 -10.459471 -3.421319 0.000000 0.000000 -34.857971 3.787434 1.820202 -11.969820 -1.235759 0.991186 -14.607533 -47.921249 -61.152008 3.892639 -17.654747 -12.759891 -2.109768 -2.340481 40.492500 7.292606 10.763703 13.693457 0.893727 0.000000 0.000000 52.386921 15.794971 14.552070
